<?xml version="1.0" encoding="UTF-8"?> <!-- Generator: Adobe Illustrator 21.0.2, SVG Export Plug-In . SVG Version: 6.00 Build 0) --> <svg xmlns="http://www.w3.org/2000/svg" xmlns:xlink="http://www.w3.org/1999/xlink" id="Layer_1" x="0px" y="0px" viewBox="0 0 306 248" style="enable-background:new 0 0 306 248;" xml:space="preserve"> <style type="text/css"> .st0{fill:url(#SVGID_1_);} .st1{fill:#FFFFFF;} .st2{fill:url(#SVGID_2_);} .st3{fill:url(#SVGID_3_);} .st4{fill:url(#SVGID_4_);} .st5{fill:url(#SVGID_5_);} .st6{fill:url(#SVGID_6_);} .st7{fill:url(#SVGID_7_);} .st8{fill:url(#SVGID_8_);} .st9{fill:url(#SVGID_9_);} .st10{fill:#D0D3D8;} .st11{fill:url(#SVGID_10_);} .st12{fill:url(#SVGID_11_);} .st13{fill:url(#SVGID_12_);} .st14{fill:url(#SVGID_13_);} .st15{fill:url(#SVGID_14_);} .st16{fill:url(#SVGID_15_);} .st17{fill:url(#SVGID_16_);} .st18{fill:url(#SVGID_17_);} .st19{fill:url(#SVGID_18_);} .st20{fill:url(#SVGID_19_);} .st21{fill:url(#SVGID_20_);} .st22{fill:url(#SVGID_21_);} .st23{fill:url(#SVGID_22_);} .st24{fill:url(#SVGID_23_);} .st25{fill:url(#SVGID_24_);} .st26{fill:url(#SVGID_25_);} .st27{fill:#01405C;} .st28{fill:url(#SVGID_26_);} .st29{fill:url(#SVGID_27_);} .st30{fill:url(#SVGID_28_);} .st31{fill:url(#SVGID_29_);} .st32{fill:url(#SVGID_30_);} .st33{fill:url(#SVGID_31_);} .st34{fill:#8B2EE5;} .st35{fill:#6E00C5;} .st36{fill:url(#SVGID_32_);} .st37{fill:url(#SVGID_33_);} .st38{fill:url(#SVGID_34_);} .st39{fill:url(#SVGID_35_);} .st40{fill:url(#SVGID_36_);} .st41{fill:url(#SVGID_37_);} .st42{fill:url(#SVGID_38_);} .st43{fill:url(#SVGID_39_);} .st44{fill:url(#SVGID_40_);} .st45{fill:url(#SVGID_41_);} .st46{fill:url(#SVGID_42_);} .st47{fill:url(#SVGID_43_);} .st48{fill:url(#SVGID_44_);} .st49{fill:url(#SVGID_45_);} .st50{fill:url(#SVGID_46_);} .st51{opacity:0.48;fill:#D30B28;} .st52{opacity:0.54;fill:#099BCE;} .st53{fill:url(#SVGID_47_);} .st54{fill:url(#SVGID_48_);} .st55{fill:url(#SVGID_49_);} .st56{fill:url(#SVGID_50_);} .st57{fill:url(#SVGID_51_);} .st58{fill:url(#SVGID_52_);} .st59{fill:url(#SVGID_53_);} .st60{fill:url(#SVGID_54_);} .st61{fill:#002167;} .st62{fill:url(#SVGID_55_);} .st63{opacity:0.65;fill:#00A6EF;} .st64{fill:#00A6EF;} .st65{opacity:0.51;fill:#01405C;} </style> <g> <g> <g> <g> <linearGradient id="SVGID_1_" gradientUnits="userSpaceOnUse" x1="355.3765" y1="996.1541" x2="403.6821" y2="943.1548" gradientTransform="matrix(0.4905 0.8714 -0.8714 0.4905 916.4471 -593.2628)"> <stop offset="0" style="stop-color:#00CDC4"></stop> <stop offset="1" style="stop-color:#00CDC4"></stop> </linearGradient> <path class="st0" d="M252.2,211.4c2.2-2.6,4.3-5.2,7-7.2c2.5-1.9,6.4-3,8.4-0.6c2,2.2,0.7,5.7-0.7,8.4 c5.6-3.9,11.4-7.5,17.7-10.2c3.1-1.3,6.5-2.4,9.8-1.8c3.3,0.6,6.5,3.5,6.3,6.9c-0.2,3.4-3.4,5.7-6.6,6.9 c-3.2,1.1-6.6,1.6-9.4,3.5c2.2,0.6,4.8,1.5,5.1,3.8c0.3,2-1.6,3.8-3.6,4.2c-2,0.4-4-0.2-6.1-0.3c-11.3-0.5-3.4,3.7-2.8,5 c0.7,1.3,0.8,3,0,4.3c-0.9,1.4-2.8,1.9-4.5,2c0,0,0,0,0,0c-10.2,1-35.4-6.2-36.3-7.6C235.3,226.6,248.5,215.7,252.2,211.4z"></path> </g> <path class="st1" d="M224.4,231.9c0,0,0-0.1,0-0.1c0,0,0,0,0.1,0c5.7-1.4,10.1-2.6,14.3-3.7c3.8-1.1,7.4-2.1,10.8-3.1l0.1,0 l0-0.1c1.2-2.2,2.7-4.2,4.2-6.2l0.2-0.3c1.4-1.8,2.8-3.7,4.4-5.3c0,0,0.1,0,0.1,0c0,0,0.1,0,0.1,0.1c0,0.1,0,0.1,0,0.1 c-1.7,1.7-3.1,3.6-4.5,5.5l-0.2,0.3c-1.2,1.7-2.6,3.5-3.7,5.5l-0.2,0.4l0.4-0.1c14.4-4.4,26.6-9.2,37.3-14.6c0.1,0,0.1,0,0.1,0 c0,0,0,0.1,0,0.1c0,0,0,0,0,0c-4.3,2.2-8.9,4.3-13.6,6.2c-1.4,0.6-2.9,1.2-4.7,1.9l-0.6,0.3l0.7,0.1c3.7,0.1,7.2,0.3,10.6,0.6 c0,0,0.1,0,0.1,0c0,0,0,0.1,0,0.1c0,0,0,0-0.1,0c-3.8-0.4-7.8-0.6-11.9-0.6l-0.1,0l-0.1,0c-7.7,2.9-16.2,5.7-26.2,8.5l-1.1,0.3 l1.2,0.1l1,0c3.5,0,7.2,0,10.8,0.3c3.9,0.3,8.1,0.9,13,1.9c0,0,0,0,0,0c0,0,0,0.1,0,0.1c0,0-0.1,0.1-0.1,0c-5-1-9.2-1.6-13.2-1.9 c-3.5-0.2-7.1-0.2-10.5-0.3c-0.9,0-1.9,0-2.8,0l0,0l-0.1,0C235.5,229.2,230.6,230.4,224.4,231.9C224.5,232,224.5,232,224.4,231.9 z"></path> </g> </g> <g> <linearGradient id="SVGID_2_" gradientUnits="userSpaceOnUse" x1="205.8369" y1="251.9911" x2="122.432" y2="39.7493"> <stop offset="0" style="stop-color:#F0F0F0"></stop> <stop offset="1" style="stop-color:#FDFDFD"></stop> </linearGradient> <path class="st2" d="M232,67.5H104c-5.7,0-10.3,4.6-10.3,10.3v155.8c0,5.7,4.6,10.3,10.3,10.3h128c5.7,0,10.3-4.6,10.3-10.3V77.8 C242.2,72.1,237.6,67.5,232,67.5z"></path> <linearGradient id="SVGID_3_" gradientUnits="userSpaceOnUse" x1="167.9828" y1="231.6093" x2="167.9828" y2="90.4035"> <stop offset="0" style="stop-color:#00A6EF"></stop> <stop offset="1" style="stop-color:#00A6D2"></stop> </linearGradient> <path class="st3" d="M242.2,87.9V77.8c0-5.7-4.6-10.3-10.3-10.3H104c-5.7,0-10.3,4.6-10.3,10.3v10.1H242.2z"></path> <g> <g> <g> <linearGradient id="SVGID_4_" gradientUnits="userSpaceOnUse" x1="168.3218" y1="200.6433" x2="168.3218" y2="33.3921"> <stop offset="0" style="stop-color:#FFFFFF"></stop> <stop offset="1" style="stop-color:#FFFFFF"></stop> </linearGradient> <path class="st4" d="M222.5,180.2H114.1c-3.4,0-6.1-2.7-6.1-6.1v-55.6c0-3.4,2.7-6.1,6.1-6.1h108.4c3.4,0,6.1,2.7,6.1,6.1v55.6 C228.7,177.4,225.9,180.2,222.5,180.2z"></path> </g> </g> <linearGradient id="SVGID_5_" gradientUnits="userSpaceOnUse" x1="226.3526" y1="246.4683" x2="55.2141" y2="75.3298"> <stop offset="0" style="stop-color:#01405C"></stop> <stop offset="1" style="stop-color:#01405C"></stop> </linearGradient> <rect x="119.8" y="122.7" class="st5" width="13.6" height="48.1"></rect> <linearGradient id="SVGID_6_" gradientUnits="userSpaceOnUse" x1="232.4583" y1="240.3626" x2="61.3199" y2="69.2242"> <stop offset="0" style="stop-color:#01405C"></stop> <stop offset="1" style="stop-color:#01405C"></stop> </linearGradient> <rect x="140.2" y="138.9" class="st6" width="13.6" height="31.9"></rect> <linearGradient id="SVGID_7_" gradientUnits="userSpaceOnUse" x1="240.0183" y1="232.8027" x2="68.88" y2="61.6644"> <stop offset="0" style="stop-color:#01405C"></stop> <stop offset="1" style="stop-color:#01405C"></stop> </linearGradient> <rect x="160.5" y="149.4" class="st7" width="13.6" height="21.4"></rect> <linearGradient id="SVGID_8_" gradientUnits="userSpaceOnUse" x1="252.7743" y1="220.0468" x2="81.6359" y2="48.9084"> <stop offset="0" style="stop-color:#01405C"></stop> <stop offset="1" style="stop-color:#01405C"></stop> </linearGradient> <rect x="179.2" y="135.6" class="st8" width="13.6" height="35.2"></rect> <linearGradient id="SVGID_9_" gradientUnits="userSpaceOnUse" x1="261.127" y1="211.6942" x2="89.9883" y2="40.5556"> <stop offset="0" style="stop-color:#01405C"></stop> <stop offset="1" style="stop-color:#01405C"></stop> </linearGradient> <rect x="198.5" y="140.9" class="st9" width="13.6" height="29.9"></rect> </g> <g> <g> <g> <path class="st10" d="M133.1,221h-14.3c-0.4,0-0.8-0.4-0.8-0.8v-0.5c0-0.4,0.4-0.8,0.8-0.8h14.3c0.4,0,0.8,0.4,0.8,0.8v0.5 C133.9,220.7,133.5,221,133.1,221z"></path> </g> </g> <g> <g> <path class="st10" d="M133.1,226.3h-14.3c-0.4,0-0.8-0.4-0.8-0.8V225c0-0.4,0.4-0.8,0.8-0.8h14.3c0.4,0,0.8,0.4,0.8,0.8v0.5 C133.9,225.9,133.5,226.3,133.1,226.3z"></path> </g> </g> <g> <g> <path class="st10" d="M176.9,221h-14.3c-0.4,0-0.8-0.4-0.8-0.8v-0.5c0-0.4,0.4-0.8,0.8-0.8h14.3c0.4,0,0.8,0.4,0.8,0.8v0.5 C177.7,220.7,177.3,221,176.9,221z"></path> </g> </g> <g> <g> <path class="st10" d="M176.9,226.3h-14.3c-0.4,0-0.8-0.4-0.8-0.8V225c0-0.4,0.4-0.8,0.8-0.8h14.3c0.4,0,0.8,0.4,0.8,0.8v0.5 C177.7,225.9,177.3,226.3,176.9,226.3z"></path> </g> </g> <g> <g> <path class="st10" d="M220.1,221h-14.3c-0.4,0-0.8-0.4-0.8-0.8v-0.5c0-0.4,0.4-0.8,0.8-0.8h14.3c0.4,0,0.8,0.4,0.8,0.8v0.5 C220.9,220.7,220.5,221,220.1,221z"></path> </g> </g> <g> <g> <path class="st10" d="M220.1,226.3h-14.3c-0.4,0-0.8-0.4-0.8-0.8V225c0-0.4,0.4-0.8,0.8-0.8h14.3c0.4,0,0.8,0.4,0.8,0.8v0.5 C220.9,225.9,220.5,226.3,220.1,226.3z"></path> </g> </g> <g> <g> <linearGradient id="SVGID_10_" gradientUnits="userSpaceOnUse" x1="134.9617" y1="209.8651" x2="107.0768" y2="180.1324"> <stop offset="0" style="stop-color:#FF253A"></stop> <stop offset="1" style="stop-color:#FF94A4"></stop> </linearGradient> <path class="st11" d="M133.1,211.5h-13c-2.2,0-4-1.8-4-4v-13c0-2.2,1.8-4,4-4h13c2.2,0,4,1.8,4,4v13 C137.2,209.7,135.4,211.5,133.1,211.5z"></path> <linearGradient id="SVGID_11_" gradientUnits="userSpaceOnUse" x1="123.1107" y1="201.3608" x2="130.375" y2="201.3608"> <stop offset="0" style="stop-color:#F0F0F0"></stop> <stop offset="1" style="stop-color:#FDFDFD"></stop> </linearGradient> <path class="st12" d="M130,201.9l-6.1,3c-0.4,0.2-0.8-0.1-0.8-0.5l0-6c0-0.4,0.5-0.7,0.8-0.5l6.1,3 C130.5,201.1,130.5,201.7,130,201.9z"></path> </g> <g> <linearGradient id="SVGID_12_" gradientUnits="userSpaceOnUse" x1="188.5623" y1="220.3465" x2="160.3415" y2="191.7897"> <stop offset="0" style="stop-color:#00A6EF"></stop> <stop offset="1" style="stop-color:#00A6D2"></stop> </linearGradient> <path class="st13" d="M175.9,211.5h-13c-2.2,0-4-1.8-4-4v-13c0-2.2,1.8-4,4-4h13c2.2,0,4,1.8,4,4v13 C179.9,209.7,178.1,211.5,175.9,211.5z"></path> <linearGradient id="SVGID_13_" gradientUnits="userSpaceOnUse" x1="194.8952" y1="224.5638" x2="151.1834" y2="184.2519"> <stop offset="0" style="stop-color:#F0F0F0"></stop> <stop offset="1" style="stop-color:#FDFDFD"></stop> </linearGradient> <path class="st14" d="M175.8,196.7c-0.6-0.6-1.2-0.6-2.1-0.4c-0.1-0.2-0.2-0.3-0.2-0.3c-0.6-0.8-1.4-1.1-2.5-0.8 c-0.8,0.2-1.5,0.8-1.8,1.5c-0.4,0.7-0.5,1.6-0.2,2.4c0,0,0.1,0.1,0.1,0.4c-1.3-0.4-3-0.6-5.3,0c0,0,1.1,2.7,3.4,3.6 c-0.7,0.6-3.5,1.1-4.7,1.8c0,0,5.4,4,10.9,0.3c2.5-1.6,1.6-5.8,1-7.5C175.2,197,175.8,196.7,175.8,196.7z"></path> </g> <g> <linearGradient id="SVGID_14_" gradientUnits="userSpaceOnUse" x1="212.9308" y1="249.7484" x2="212.9308" y2="185.8454"> <stop offset="0" style="stop-color:#FF3C48"></stop> <stop offset="1" style="stop-color:#FFB03E"></stop> </linearGradient> <path class="st15" d="M219.5,211.5h-13c-2.2,0-4-1.8-4-4v-13c0-2.2,1.8-4,4-4h13c2.2,0,4,1.8,4,4v13 C223.5,209.7,221.7,211.5,219.5,211.5z"></path> <g> <linearGradient id="SVGID_15_" gradientUnits="userSpaceOnUse" x1="216.4898" y1="204.1006" x2="211.876" y2="199.4868"> <stop offset="0" style="stop-color:#F0F0F0"></stop> <stop offset="1" style="stop-color:#FDFDFD"></stop> </linearGradient> <path class="st16" d="M213.2,198.2c-1.4,0-2.6,1.2-2.6,2.6c0,1.4,1.2,2.6,2.6,2.6c1.4,0,2.6-1.2,2.6-2.6 C215.8,199.4,214.6,198.2,213.2,198.2z"></path> <linearGradient id="SVGID_16_" gradientUnits="userSpaceOnUse" x1="222.6427" y1="210.2524" x2="209.3685" y2="196.9782"> <stop offset="0" style="stop-color:#F0F0F0"></stop> <stop offset="1" style="stop-color:#FDFDFD"></stop> </linearGradient> <path class="st17" d="M216.4,194.7h-6.3c-1.6,0-3,1.3-3,3v6.3c0,1.6,1.3,3,3,3h6.3c1.6,0,3-1.3,3-3v-6.3 C219.3,196,218,194.7,216.4,194.7z M213.2,204.7c-2.2,0-3.9-1.7-3.9-3.9c0-2.2,1.7-3.9,3.9-3.9c2.2,0,3.9,1.7,3.9,3.9 C217.1,203,215.4,204.7,213.2,204.7z"></path> </g> </g> </g> </g> </g> <g> <g> <linearGradient id="SVGID_17_" gradientUnits="userSpaceOnUse" x1="282.7529" y1="54.8843" x2="214.5686" y2="5.2806"> <stop offset="0" style="stop-color:#00CDC4"></stop> <stop offset="1.701170e-02" style="stop-color:#00CDC4"></stop> <stop offset="1" style="stop-color:#00CDC4"></stop> </linearGradient> <path class="st18" d="M270,29.5c0-2.4-0.5-4.8-1.2-6.9l4.1-4c1.1-1,1.2-2.7,0.2-3.9l-2.9-3.6c-0.9-1.2-2.6-1.4-3.8-0.6l-4.5,2.9 c-1.9-1.4-4-2.5-6.3-3.2l-0.6-5.8c-0.2-1.5-1.4-2.6-2.9-2.6h-4.6c-1.5,0-2.7,1.1-2.9,2.6l-0.6,5.8c-2.1,0.6-4.1,1.6-5.9,2.8 l-5.4-3.5c-1.2-0.8-2.9-0.5-3.8,0.6l-2.9,3.6c-0.9,1.2-0.8,2.8,0.2,3.9l4.6,4.6c-0.7,1.8-1.1,3.7-1.3,5.7l-6.7,2.3 c-1.4,0.5-2.2,1.9-1.9,3.4l1,4.5c0.3,1.4,1.7,2.4,3.2,2.2l6.9-0.8c0.9,1.6,2,3.1,3.3,4.4l-2.5,6.9c-0.5,1.4,0.1,2.9,1.5,3.6 l4.1,2c1.3,0.6,2.9,0.2,3.7-1.1l3.5-5.8c1.3,0.3,2.6,0.4,4,0.4c0.6,0,1.2,0,1.8-0.1l3.7,5.9c0.8,1.3,2.4,1.7,3.7,1.1l4.1-2 c1.3-0.6,2-2.2,1.5-3.6l-2.1-5.8c1.7-1.3,3.1-3,4.3-4.8l6.2,0.8c1.5,0.2,2.8-0.8,3.2-2.2l1-4.5c0.3-1.4-0.5-2.9-1.9-3.4L270,29.5 z M250.7,39.2c-6.7,1.1-12.4-4.6-11.3-11.3c0.7-4,3.9-7.3,8-8c6.7-1.1,12.4,4.6,11.3,11.3C258,35.3,254.7,38.6,250.7,39.2z M250.1,35.6c-4.2,0.7-7.7-2.9-7-7c0.4-2.5,2.4-4.5,5-5c4.2-0.7,7.7,2.9,7,7C254.6,33.2,252.6,35.2,250.1,35.6z"></path> </g> <g> <linearGradient id="SVGID_18_" gradientUnits="userSpaceOnUse" x1="175.5138" y1="35.6994" x2="141.1943" y2="-6.0501"> <stop offset="0" style="stop-color:#00A6EF"></stop> <stop offset="1" style="stop-color:#00A6D2"></stop> </linearGradient> <path class="st19" d="M173.5,19.4c0-1.3-0.3-2.6-0.7-3.8l2.3-2.2c0.6-0.6,0.6-1.5,0.1-2.1l-1.6-2c-0.5-0.6-1.4-0.8-2.1-0.4 l-2.5,1.6c-1-0.8-2.2-1.4-3.5-1.8l-0.3-3.2c-0.1-0.8-0.8-1.4-1.6-1.4H161c-0.8,0-1.5,0.6-1.6,1.4l-0.3,3.2 c-1.2,0.4-2.3,0.9-3.3,1.6l-3-1.9c-0.7-0.4-1.6-0.3-2.1,0.4l-1.6,2c-0.5,0.6-0.5,1.6,0.1,2.1l2.6,2.5c-0.4,1-0.6,2-0.7,3.1 l-3.7,1.3c-0.8,0.3-1.2,1.1-1,1.9l0.6,2.5c0.2,0.8,0.9,1.3,1.8,1.2l3.8-0.5c0.5,0.9,1.1,1.7,1.8,2.4l-1.4,3.8 c-0.3,0.8,0.1,1.6,0.8,2l2.3,1.1c0.7,0.4,1.6,0.1,2.1-0.6l2-3.2c0.7,0.1,1.5,0.2,2.2,0.2c0.3,0,0.7,0,1,0l2,3.3 c0.4,0.7,1.3,1,2.1,0.6l2.3-1.1c0.7-0.4,1.1-1.2,0.8-2l-1.2-3.2c0.9-0.7,1.7-1.6,2.4-2.6l3.4,0.4c0.8,0.1,1.6-0.4,1.8-1.2 l0.6-2.5c0.2-0.8-0.3-1.6-1-1.9L173.5,19.4z M163.3,27.7c-5.7,0.9-10.6-3.9-9.7-9.7c0.6-3.5,3.4-6.3,6.8-6.8 c5.7-0.9,10.6,3.9,9.7,9.7C169.6,24.4,166.8,27.2,163.3,27.7z M161.2,15.1c-1.8,0.3-3.3,1.8-3.6,3.6c-0.5,3,2.1,5.6,5.1,5.1 c1.8-0.3,3.3-1.8,3.6-3.6C166.8,17.2,164.2,14.6,161.2,15.1z"></path> </g> <g> <linearGradient id="SVGID_19_" gradientUnits="userSpaceOnUse" x1="164.2736" y1="83.1562" x2="215.3391" y2="18.5732"> <stop offset="0" style="stop-color:#01405C"></stop> <stop offset="1" style="stop-color:#01405C"></stop> </linearGradient> <path class="st20" d="M210.3,40.5c0-1.4-0.3-2.8-0.7-4l2.4-2.3c0.6-0.6,0.7-1.6,0.1-2.3l-1.7-2.1c-0.5-0.7-1.5-0.8-2.2-0.4 l-2.6,1.7c-1.1-0.8-2.3-1.4-3.7-1.8l-0.3-3.4c-0.1-0.9-0.8-1.5-1.7-1.5h-2.7c-0.9,0-1.6,0.7-1.7,1.5l-0.4,3.4 c-1.2,0.4-2.4,0.9-3.4,1.7l-3.1-2c-0.7-0.5-1.7-0.3-2.2,0.4l-1.7,2.1c-0.5,0.7-0.5,1.6,0.1,2.3l2.7,2.7c-0.4,1-0.7,2.1-0.8,3.3 l-3.9,1.3c-0.8,0.3-1.3,1.1-1.1,2l0.6,2.6c0.2,0.8,1,1.4,1.8,1.3l4-0.5c0.5,0.9,1.2,1.8,1.9,2.5l-1.4,4c-0.3,0.8,0.1,1.7,0.9,2.1 l2.4,1.2c0.8,0.4,1.7,0.1,2.2-0.6l2.1-3.4c0.7,0.1,1.5,0.2,2.3,0.2c0.3,0,0.7,0,1,0l2.1,3.5c0.5,0.7,1.4,1,2.2,0.6l2.4-1.2 c0.8-0.4,1.1-1.3,0.9-2.1l-1.2-3.4c1-0.8,1.8-1.7,2.5-2.8l3.6,0.4c0.9,0.1,1.7-0.5,1.8-1.3l0.6-2.6c0.2-0.8-0.3-1.7-1.1-2 L210.3,40.5z M199.3,47.1c-4.6,0.8-8.5-3.2-7.7-7.7c0.5-2.8,2.7-5,5.5-5.5c4.6-0.8,8.5,3.2,7.7,7.7 C204.3,44.4,202.1,46.7,199.3,47.1z M197.5,36.9c-1.5,0.3-2.8,1.5-3,3c-0.4,2.5,1.7,4.7,4.3,4.3c1.5-0.3,2.8-1.5,3-3 C202.2,38.6,200.1,36.5,197.5,36.9z"></path> </g> </g> <g> <g> <linearGradient id="SVGID_20_" gradientUnits="userSpaceOnUse" x1="42.019" y1="233.3325" x2="68.525" y2="185.8353"> <stop offset="0" style="stop-color:#00CDC4"></stop> <stop offset="1" style="stop-color:#00CDC4"></stop> </linearGradient> <path class="st21" d="M56.7,205.2c0.1,11.4-0.8,15-2.9,20c-0.5,1.3-1,2.5-1.5,3.6h0.9c0.4-0.8,0.8-1.7,1.3-2.8 c3.6-7,8.2-13.1,10.3-21.5c2.1-8.4,2.5-31.7,2.9-33.1C68.3,170.2,56.6,193.7,56.7,205.2z"></path> </g> <g> <linearGradient id="SVGID_21_" gradientUnits="userSpaceOnUse" x1="47.9124" y1="260.7718" x2="39.4111" y2="127.8037"> <stop offset="0" style="stop-color:#00CDC4"></stop> <stop offset="1" style="stop-color:#00CDC4"></stop> </linearGradient> <path class="st22" d="M52.4,229.9c0.4-6.9,1-20.6-5.4-29.9C39.1,188.7,36.4,167,36.4,167s-2.7,33.6,4.3,42.8 c6.1,8,10.6,10.1,10.8,20H52.4z"></path> </g> <linearGradient id="SVGID_22_" gradientUnits="userSpaceOnUse" x1="71.4287" y1="226.2316" x2="70.1208" y2="162.7992"> <stop offset="0" style="stop-color:#00CDC4"></stop> <stop offset="1" style="stop-color:#00CDC4"></stop> </linearGradient> <path class="st23" d="M61,217.6c-0.5,1.6-1.2,3.1-2.1,4.5c-1.2,1.8-2.9,4.7-3.7,7.2h1c0.3-0.6,0.6-1.4,1-2.1 c1.3-2.8,3.3-5.1,5.8-6.9c3.6-2.5,8.3-6.7,9.1-10.3c2-8.6,12.9-17.5,15-17.8C87.1,192.1,69.8,192.4,61,217.6z"></path> <linearGradient id="SVGID_23_" gradientUnits="userSpaceOnUse" x1="37.6059" y1="226.9289" x2="36.298" y2="163.4967"> <stop offset="0" style="stop-color:#00CDC4"></stop> <stop offset="1" style="stop-color:#00CDC4"></stop> </linearGradient> <path class="st24" d="M48.6,229.6c0,0,5.4-2.7-4.8-11.7c-10.2-8.9-11.1-22-14.3-27.3c-3.2-5.4-4-5.8-4-5.8s-4.2,16.8,4.5,27.2 c8.8,10.4,12.2,5.6,15.9,9.8c3.7,4.2,1,7.5,1,7.5L48.6,229.6z"></path> <linearGradient id="SVGID_24_" gradientUnits="userSpaceOnUse" x1="55.9946" y1="240.8016" x2="48.539" y2="226.5481"> <stop offset="0" style="stop-color:#FDD247"></stop> <stop offset="1" style="stop-color:#FDD247"></stop> </linearGradient> <path class="st25" d="M41.8,229.5l3.2,15.2c0.1,0.6,0.7,1.1,1.4,1.1h11.9c0.7,0,1.2-0.5,1.4-1.1l3.2-15.2c0.2-0.9-0.5-1.7-1.4-1.7 H43.2C42.3,227.8,41.6,228.6,41.8,229.5z"></path> </g> <g> <g> <linearGradient id="SVGID_25_" gradientUnits="userSpaceOnUse" x1="275.2982" y1="112.9221" x2="224.6316" y2="69.9517"> <stop offset="0" style="stop-color:#EEEEEE"></stop> <stop offset="1" style="stop-color:#EEEEEE"></stop> </linearGradient> <path class="st26" d="M274.6,72.8h-59.3c-3,0-5.5,2.5-5.5,5.5v17.8c0,3,2.5,5.5,5.5,5.5h23.1l4.5,8.2c1.1,1.4,3.1,1.4,4.2,0 l4.9-8.2h22.7c3,0,5.5-2.5,5.5-5.5V78.3C280.1,75.3,277.7,72.8,274.6,72.8z"></path> <g> <path class="st27" d="M223.9,86.6L223.9,86.6c-1.5,0-2.8-1.2-2.8-2.8v0c0-1.5,1.2-2.8,2.8-2.8l0,0c1.5,0,2.8,1.2,2.8,2.8v0 C226.6,85.4,225.4,86.6,223.9,86.6z"></path> <path class="st27" d="M223.9,87.9c-2.5,0-4.6,2.1-4.6,4.6h9.2C228.4,89.9,226.4,87.9,223.9,87.9z"></path> </g> <path class="st27" d="M250.7,86.9c0-3.2-2.6-5.8-5.8-5.8c-3.2,0-5.8,2.6-5.8,5.8s2.6,5.8,5.8,5.8c0.5,0,1-0.1,1.4-0.2l2.3,1.5 l-0.2-2.5C249.9,90.4,250.7,88.8,250.7,86.9z M246.8,88.8h-3.4c-0.2,0-0.4-0.2-0.4-0.4c0-0.2,0.2-0.4,0.4-0.4h3.4 c0.2,0,0.4,0.2,0.4,0.4C247.2,88.6,247,88.8,246.8,88.8z M248,86.4h-5.8c-0.2,0-0.4-0.2-0.4-0.4c0-0.2,0.2-0.4,0.4-0.4h5.8 c0.2,0,0.4,0.2,0.4,0.4C248.4,86.2,248.2,86.4,248,86.4z"></path> </g> <g> <path class="st27" d="M273.6,85.3c-0.9,0-0.9,0-1.3-0.1c-0.7-0.2,0.1-1-0.3-2.6c-0.4-1.6-2-1.5-1.9-0.8c0.1,0.7,0.1,2.6-0.4,3.1 c-0.3,0.3-0.7,0.7-1,1c-0.3,0.3-0.6,0.4-1,0.4l-0.3,0l0,4v0.2h0l1.6,0c0.8,0.9,2.3,1.1,2.3,1.1l1.9,0c0.9,0,1.6-0.7,1.7-1.6 l0.3-2.7C275.5,86.3,274.7,85.3,273.6,85.3z"></path> <polygon class="st27" points="266,84.8 263,84.7 263,92.3 266,92.3 "></polygon> </g> </g> <g> <linearGradient id="SVGID_26_" gradientUnits="userSpaceOnUse" x1="183.0387" y1="102.9484" x2="124.676" y2="58.3746"> <stop offset="0" style="stop-color:#FF253A"></stop> <stop offset="1" style="stop-color:#FF94A4"></stop> </linearGradient> <circle class="st28" cx="163.4" cy="87.9" r="14.6"></circle> <path class="st1" d="M168.1,80.4c-2.5-1-5.4,0.4-6.3,3l-0.1,0.2l-0.4-0.1c-1.3-0.5-2.6-0.4-3.7,0.1c-1.1,0.5-2,1.5-2.5,2.7 c-0.9,2.5,0.3,5.3,2.8,6.2l0.4,0.1l7.8,2.9c0.7,0.2,1.4-0.1,1.7-0.8l2.9-7.8l0.1-0.4c0.5-1.3,0.4-2.6-0.1-3.7 C170.2,81.8,169.3,80.9,168.1,80.4z"></path> </g> <g> <g> <g> <g> <linearGradient id="SVGID_27_" gradientUnits="userSpaceOnUse" x1="229.3965" y1="525.4275" x2="233.0309" y2="507.4689" gradientTransform="matrix(0.859 0.5119 -0.5119 0.859 335.3861 -429.7709)"> <stop offset="0" style="stop-color:#00A6EF"></stop> <stop offset="1" style="stop-color:#00A6D2"></stop> </linearGradient> <polygon class="st29" points="293.6,124.6 267.8,109.2 257,127.4 270.4,135.3 282.8,142.7 "></polygon> </g> </g> </g> <g> <g> <g> <g> <linearGradient id="SVGID_28_" gradientUnits="userSpaceOnUse" x1="222.1027" y1="504.8538" x2="259.73" y2="495.0194" gradientTransform="matrix(0.859 0.5119 -0.5119 0.859 335.3861 -429.7709)"> <stop offset="0" style="stop-color:#00A6EF"></stop> <stop offset="1" style="stop-color:#00A6D2"></stop> </linearGradient> <polygon class="st30" points="293.6,124.6 267.8,109.2 274.8,128 "></polygon> </g> </g> </g> </g> </g> <g> <linearGradient id="SVGID_29_" gradientUnits="userSpaceOnUse" x1="50.3084" y1="151.137" x2="36.8706" y2="141.5149"> <stop offset="0" style="stop-color:#FFE06F"></stop> <stop offset="1" style="stop-color:#FFB400"></stop> </linearGradient> <polygon class="st31" points="45.2,127 19.1,134.9 24.6,153.3 38.2,149.2 50.8,145.4 "></polygon> <g> <g> <g> <g> <linearGradient id="SVGID_30_" gradientUnits="userSpaceOnUse" x1="42.1441" y1="143.2978" x2="22.568" y2="119.0766"> <stop offset="0" style="stop-color:#FFE06F"></stop> <stop offset="1" style="stop-color:#FFB400"></stop> </linearGradient> <polygon class="st32" points="45.2,127 19.1,134.9 36,141.7 "></polygon> </g> </g> </g> </g> </g> <g> <linearGradient id="SVGID_31_" gradientUnits="userSpaceOnUse" x1="1467.5038" y1="-141.4644" x2="1479.8943" y2="-207.6977" gradientTransform="matrix(-0.9103 0.414 0.414 0.9103 1508.1073 -330.3628)"> <stop offset="0" style="stop-color:#FFE06F"></stop> <stop offset="1" style="stop-color:#FFB400"></stop> </linearGradient> <path class="st33" d="M63.3,136.8C86.7,116,77.9,73.4,77.9,73.4l28.2-2.1c0,0,3,43-20.5,63.9c0,0-9.7,9-18.2,8.7 C59,143.6,63.3,136.8,63.3,136.8z"></path> <path class="st34" d="M28.4,14.3C28.4,14.3,28.4,14.3,28.4,14.3C28.4,14.3,28.4,14.3,28.4,14.3L28.4,14.3z"></path> <ellipse transform="matrix(0.9994 -3.549282e-02 3.549282e-02 0.9994 -2.1212 0.8852)" class="st27" cx="23.9" cy="60.2" rx="21.8" ry="47.6"></ellipse> <path class="st35" d="M28.5,14.4c0.2,0.2,0.8,0.6,1.8,1.3C29.7,15.1,29.1,14.7,28.5,14.4z"></path> <linearGradient id="SVGID_32_" gradientUnits="userSpaceOnUse" x1="1721.3856" y1="68.2556" x2="1685.6746" y2="68.2556" gradientTransform="matrix(-0.9994 3.550000e-02 3.550000e-02 0.9994 1722.2856 -68.4424)"> <stop offset="0" style="stop-color:#FDD247"></stop> <stop offset="1" style="stop-color:#FDD247"></stop> </linearGradient> <path class="st36" d="M4.7,60.9c0.4,11.2,2.9,21.7,6.9,29.5c3.6,6.8,8.1,10.8,12,10.7s8.2-4.4,11.3-11.5c0.3-0.6,0.5-1.2,0.7-1.8 c0.8-2,1.5-4.2,2-6.5c0.7-2.9,1.3-5.9,1.6-9.1c0.4-4,0.6-8.2,0.5-12.5c-0.2-4.3-0.6-8.5-1.3-12.4c-0.7-3.6-1.5-7-2.6-10.2 c-0.8-2.3-1.7-4.4-2.7-6.4c-0.1-0.2-0.2-0.3-0.3-0.5c-3.6-6.8-8.1-10.8-12-10.7c-4,0.1-8.2,4.4-11.3,11.5 C6.1,39,4.3,49.6,4.7,60.9z"></path> <linearGradient id="SVGID_33_" gradientUnits="userSpaceOnUse" x1="1704.9164" y1="68.2557" x2="1685.7793" y2="68.2557" gradientTransform="matrix(-0.9994 3.550000e-02 3.550000e-02 0.9994 1722.2856 -68.4424)"> <stop offset="0" style="stop-color:#D8D5DB"></stop> <stop offset="1" style="stop-color:#F1F0F2"></stop> </linearGradient> <path class="st37" d="M20.8,52.9l0.5,14.7l18.1,4.1c0.4-3.9,0.6-8,0.4-12.2c-0.1-4.2-0.6-8.2-1.3-12.1L20.8,52.9z"></path> <g> <linearGradient id="SVGID_34_" gradientUnits="userSpaceOnUse" x1="1703.4353" y1="67.0309" x2="1677.916" y2="68.9038" gradientTransform="matrix(-0.9994 3.550000e-02 3.550000e-02 0.9994 1722.2856 -68.4424)"> <stop offset="0" style="stop-color:#C69E3C"></stop> <stop offset="1" style="stop-color:#C69E3C"></stop> </linearGradient> <path class="st38" d="M20.8,52.9l0.5,14.7l18.1,4.1c0.4-3.9,0.6-8,0.4-12.2c-0.1-4.2-0.6-8.2-1.3-12.1L20.8,52.9z"></path> <ellipse transform="matrix(0.9994 -3.549703e-02 3.549703e-02 0.9994 -2.1262 0.7842)" class="st27" cx="21" cy="60.3" rx="3.4" ry="7.4"></ellipse> </g> <g> <path class="st27" d="M111.5,31.9c13.8-0.5,25.5,10.3,25.9,24.2v0c0.5,13.8-10.3,25.5-24.2,25.9l-0.2,0l-1.8-50.1L111.5,31.9z"></path> <linearGradient id="SVGID_35_" gradientUnits="userSpaceOnUse" x1="1627.2761" y1="81.6324" x2="1598.9471" y2="60.5613" gradientTransform="matrix(-0.9994 3.550000e-02 3.550000e-02 0.9994 1722.2856 -68.4424)"> <stop offset="0" style="stop-color:#01405C"></stop> <stop offset="1" style="stop-color:#01405C"></stop> </linearGradient> <path class="st39" d="M111.5,31.9c13.8-0.5,25.5,10.3,25.9,24.2v0c0.5,13.8-10.3,25.5-24.2,25.9l-0.2,0l-1.8-50.1L111.5,31.9z"></path> <linearGradient id="SVGID_36_" gradientUnits="userSpaceOnUse" x1="1589.7225" y1="112.8131" x2="1702.1014" y2="50.5363" gradientTransform="matrix(-0.9994 3.550000e-02 3.550000e-02 0.9994 1722.2856 -68.4424)"> <stop offset="0" style="stop-color:#FDD247"></stop> <stop offset="1" style="stop-color:#FDD247"></stop> </linearGradient> <path class="st40" d="M45.6,59.4c-0.7-20.1-7-37.1-15.4-43.8c0.1,0,0.1,0.1,0.2,0.1c17.4,11.8,38.1,17.7,59.2,16.9l8.6-0.3v0l0,0 l13.1-0.5l1.8,50.1L100,82.5l0,0v0l-8.6,0.3c-20.8,0.7-40.9,8-57.4,20.8C41.5,96,46.3,79,45.6,59.4z"></path> </g> <linearGradient id="SVGID_37_" gradientUnits="userSpaceOnUse" x1="1468.3358" y1="-189.791" x2="1481.6277" y2="-212.545" gradientTransform="matrix(-0.9103 0.414 0.414 0.9103 1508.1073 -330.3628)"> <stop offset="0" style="stop-color:#01405C"></stop> <stop offset="1" style="stop-color:#01405C"></stop> </linearGradient> <path class="st41" d="M90,99c-0.6,5-3.3,8.8-7.5,8.3c-4.2-0.5-7.1-5-6.5-10s4.6-8.6,8.8-8.1C89,89.6,90.6,93.9,90,99z"></path> </g> <g> <g> <g> <path class="st27" d="M252.4,240.8l0.2,2.5c0.1,0.9-0.6,1.8-1.6,1.8l-10,0.1c-0.5,0-0.7-0.7-0.3-0.9c2.4-1.3,4.1-3,7.7-5.4 L252.4,240.8z"></path> <linearGradient id="SVGID_38_" gradientUnits="userSpaceOnUse" x1="278.8255" y1="175.6088" x2="266.017" y2="175.6088" gradientTransform="matrix(0.9976 -6.880000e-02 6.880000e-02 0.9976 -32.4087 65.2877)"> <stop offset="1.758850e-02" style="stop-color:#F4BD6C"></stop> <stop offset="1" style="stop-color:#FFD49C"></stop> </linearGradient> <path class="st42" d="M246.3,203.4l2.1,35.5c0,0-2.6,2.1-1.8,2.4c0.8,0.3,5.8-0.6,5.8-0.6l4-38.8L246.3,203.4z"></path> </g> <g> <path class="st27" d="M243.5,240.8l0.2,2.5c0.1,0.9-0.6,1.8-1.6,1.8l-10,0.1c-0.5,0-0.7-0.7-0.3-0.9c2.4-1.3,4.1-3,7.7-5.4 L243.5,240.8z"></path> <linearGradient id="SVGID_39_" gradientUnits="userSpaceOnUse" x1="269.9025" y1="174.9935" x2="257.0941" y2="174.9935" gradientTransform="matrix(0.9976 -6.880000e-02 6.880000e-02 0.9976 -32.4087 65.2877)"> <stop offset="1.758850e-02" style="stop-color:#F4BD6C"></stop> <stop offset="1" style="stop-color:#FFD49C"></stop> </linearGradient> <path class="st43" d="M237.3,203.4l2.1,35.5c0,0-2.6,2.1-1.8,2.4c0.8,0.3,5.8-0.6,5.8-0.6l4-38.8L237.3,203.4z"></path> </g> <g> <linearGradient id="SVGID_40_" gradientUnits="userSpaceOnUse" x1="231.1632" y1="134.2767" x2="250.1572" y2="134.2767"> <stop offset="0" style="stop-color:#01405C"></stop> <stop offset="1" style="stop-color:#002167"></stop> </linearGradient> <path class="st44" d="M239.8,147.9c-3.3-0.6-6.1-2.8-7.4-5.9c-0.5-1.3-0.8-2.9-0.2-4.4c1.7-5-1.6-6.8-1-9.4 c0.9-3.7,4.7-10,10.2-6.8c0,0,3.7-2.2,5.3,0.3c1.6,2.5,2.5,5.9,1.6,8.1c-0.9,2.1-1.4,3.4,0.7,5.9 C252,139.5,249.1,149.5,239.8,147.9z"></path> <linearGradient id="SVGID_41_" gradientUnits="userSpaceOnUse" x1="209.5707" y1="187.9042" x2="299.5981" y2="73.545"> <stop offset="0" style="stop-color:#00B5A8"></stop> <stop offset="1" style="stop-color:#00B5A8"></stop> </linearGradient> <path class="st45" d="M253.2,150.8c0.6,4.6-1.1,21.8-1.1,21.8h-16.5c0,0,0.8-8.5-2.1-11c-2.8-2.5-2-7.7-2-7.7s-6.4,8.1-8.8,8.4 c-2.5,0.3-19.2-10.7-19.2-10.7l1.7-2.7c0,0,13.4,6.2,14.8,6c1.4-0.3,7-11.1,9.1-12.2c2.1-1.1,10-3.6,10-3.6l5.2-0.5 c0,0,10.9,2,12.8,2.6c1.9,0.6,11.8,15.9,11.8,15.9l-13.2,15.9l-2.2-1.7l7.2-13.7L253.2,150.8z"></path> <linearGradient id="SVGID_42_" gradientUnits="userSpaceOnUse" x1="387.1778" y1="174.7791" x2="384.1301" y2="171.3766" gradientTransform="matrix(1 0 0 1 -133.3822 0)"> <stop offset="1.758850e-02" style="stop-color:#F4BD6C"></stop> <stop offset="1" style="stop-color:#FFD49C"></stop> </linearGradient> <path class="st46" d="M253.4,171.3c0,0-3.3,2.2-2.1,4.3c1.2,2.1,4.3-2.6,4.3-2.6L253.4,171.3z"></path> <linearGradient id="SVGID_43_" gradientUnits="userSpaceOnUse" x1="1287.4135" y1="1765.0879" x2="1284.3658" y2="1761.6855" gradientTransform="matrix(0.1032 0.9947 -0.9947 0.1032 1824.5568 -1312.9158)"> <stop offset="1.758850e-02" style="stop-color:#F4BD6C"></stop> <stop offset="1" style="stop-color:#FFD49C"></stop> </linearGradient> <path class="st47" d="M205.1,149.1c0,0-2.5-3.1-4.5-1.7c-2,1.4,3,4.1,3,4.1L205.1,149.1z"></path> <linearGradient id="SVGID_44_" gradientUnits="userSpaceOnUse" x1="372.2779" y1="136.9814" x2="377.5442" y2="136.9814" gradientTransform="matrix(1 0 0 1 -133.3822 0)"> <stop offset="1.758850e-02" style="stop-color:#F4BD6C"></stop> <stop offset="1" style="stop-color:#FFD49C"></stop> </linearGradient> <polygon class="st48" points="238.9,136.2 238.9,139.2 241.2,141.7 244.2,138.6 244.2,132.3 "></polygon> <linearGradient id="SVGID_45_" gradientUnits="userSpaceOnUse" x1="367.4943" y1="131.9896" x2="379.0775" y2="131.9896" gradientTransform="matrix(1 0 0 1 -133.3822 0)"> <stop offset="1.758850e-02" style="stop-color:#F4BD6C"></stop> <stop offset="1" style="stop-color:#FFD49C"></stop> </linearGradient> <path class="st49" d="M234.1,129c0,0,0.1,8,5,8.1c4.8,0.1,5-4,5-4s1.3-0.4,1.6-2.1c0.2-1.3-0.7-2.4-1.9-1.4c0,0-2.1-1.7-2.5-2.7 C241.3,126.9,235.5,129.3,234.1,129z"></path> <linearGradient id="SVGID_46_" gradientUnits="userSpaceOnUse" x1="394.5779" y1="216.8546" x2="361.4609" y2="182.48" gradientTransform="matrix(1 0 0 1 -133.3822 0)"> <stop offset="0" style="stop-color:#01405C"></stop> <stop offset="1" style="stop-color:#01405C"></stop> </linearGradient> <path class="st50" d="M235.6,172.6c0,0-5.1,7.5-4.9,15.6c0.2,8.1,2.5,34.6,2.5,34.6h23.1c0,0,1.8-34.6,1-37.3 c-2.7-8.6-5-12.9-5-12.9H235.6z"></path> </g> <path class="st51" d="M237.6,172.6c0.1-2,0.4-9.7-2.1-11.4c-2.9-1.9-4-7.3-4-7.3s-0.8,5.2,2,7.7c2.8,2.5,2.1,11,2.1,11H237.6z"></path> <path class="st52" d="M233.5,190.8c-0.7-7,4.1-17.7,4.1-17.7s0-0.2,0-0.5h-2c0,0-5.1,7.5-4.9,15.6c0.2,8.1,2.5,34.6,2.5,34.6h1.4 C234.5,216.2,234,196.6,233.5,190.8z"></path> </g> <g> <linearGradient id="SVGID_47_" gradientUnits="userSpaceOnUse" x1="224.6809" y1="240.3784" x2="184.5311" y2="178.4807" gradientTransform="matrix(1 0 0 1 -115.5576 0)"> <stop offset="0" style="stop-color:#01405C"></stop> <stop offset="1" style="stop-color:#01405C"></stop> </linearGradient> <path class="st53" d="M105.1,241l-5.7,0.1l-1.1-33.9l-9.4-16.9l-0.6,4.9c0.2,0.6-6.1,41.5-6.6,45h-5.5c-0.1-1-0.8-4.8-2.1-17.4 c-1.6-16.4-0.4-37.1,0.1-44.6c2.3,0.4,17.2,2.7,27.2-0.6c1.7,3.9,8.2,19.1,8.3,20.8C109.9,200.4,105.1,241,105.1,241z"></path> <linearGradient id="SVGID_48_" gradientUnits="userSpaceOnUse" x1="185.3401" y1="191.61" x2="219.8723" y2="124.4376" gradientTransform="matrix(1 0 0 1 -115.5576 0)"> <stop offset="0" style="stop-color:#00A6EF"></stop> <stop offset="1" style="stop-color:#00A6D2"></stop> </linearGradient> <path class="st54" d="M101.8,153.9l-0.2,23.6c-10.9,3.7-27.8,0.6-27.8,0.6l0.4-16.1c0,0-5.3-1.1-7-1.4 c-1.7-0.4-1.6-18.6,2.7-21.5c4.3-3,13.9-2.8,13.9-2.8l8.7,0.3c0,0,7.3,1.7,9.4,3c2.1,1.3,7.4,8.4,8.2,9 c0.8,0.6,12.2-15.1,12.2-15.1l3.3,2.2c0,0-12.2,25.8-14.8,25.5C109,160.8,101.8,153.9,101.8,153.9z"></path> <linearGradient id="SVGID_49_" gradientUnits="userSpaceOnUse" x1="176.045" y1="184.1217" x2="216.9286" y2="142.3331" gradientTransform="matrix(1 0 0 1 -115.5576 0)"> <stop offset="0" style="stop-color:#00A6EF"></stop> <stop offset="1" style="stop-color:#00A6D2"></stop> </linearGradient> <path class="st55" d="M101.8,153.9l-0.2,23.6c-10.9,3.7-27.8,0.6-27.8,0.6l0.4-16.1c0,0-5.3-1.1-7-1.4 c-1.7-0.4-1.6-18.6,2.7-21.5c4.3-3,13.9-2.8,13.9-2.8l8.7,0.3c0,0,7.3,1.7,9.4,3c2.1,1.3,7.4,8.4,8.2,9 c0.8,0.6,12.2-15.1,12.2-15.1l3.3,2.2c0,0-12.2,25.8-14.8,25.5C109,160.8,101.8,153.9,101.8,153.9z"></path> <path class="st1" d="M93.5,148.7H78.7c-0.7,0-1.3,0.6-1.3,1.3v18.2c0,0.7,0.6,1.3,1.3,1.3h14.7c0.7,0,1.3-0.6,1.3-1.3v-18.2 C94.8,149.3,94.2,148.7,93.5,148.7z"></path> <g> <linearGradient id="SVGID_50_" gradientUnits="userSpaceOnUse" x1="81.3188" y1="125.6565" x2="95.9543" y2="125.6565"> <stop offset="0" style="stop-color:#01405C"></stop> <stop offset="1" style="stop-color:#002167"></stop> </linearGradient> <path class="st56" d="M95.3,127.5c0-1.2-0.1-2.1-0.1-2.1c-3.8,1.5-7.5-0.2-7.5-0.2c-1.3,1.9-2.6,1.7-2.6,1.7 c-1.5-1.2-2,0.3-1.8,1.7c0.2,0.9,0.6,1.2,0.9,1.3v3.1c-0.3-0.2-1.8-1.4-2.6-3.6c-0.8-2.4,0.2-10.7,4.8-9.7c0,0,1.4-2.1,4.9-1.1 C94.8,119.6,97.2,123,95.3,127.5z"></path> <linearGradient id="SVGID_51_" gradientUnits="userSpaceOnUse" x1="203.7195" y1="140.2017" x2="203.267" y2="135.266" gradientTransform="matrix(1 0 0 1 -115.5576 0)"> <stop offset="0" style="stop-color:#FFD49C"></stop> <stop offset="0.9824" style="stop-color:#F4BD6C"></stop> </linearGradient> <path class="st57" d="M91.3,134.9v1.7l-2.5,3.4c-0.1,0.2-0.4,0.2-0.5,0l-4.2-3.8v-6.3c0.2,0,0.3,0,0.3,0 C84.8,133.2,87.9,135.8,91.3,134.9z"></path> <linearGradient id="SVGID_52_" gradientUnits="userSpaceOnUse" x1="210.9825" y1="133.8252" x2="203.1266" y2="126.5451" gradientTransform="matrix(1 0 0 1 -115.5576 0)"> <stop offset="1.758850e-02" style="stop-color:#F4BD6C"></stop> <stop offset="1" style="stop-color:#FFD49C"></stop> </linearGradient> <path class="st58" d="M95.1,125.3c0,0,1.2,7.9-3.5,9.5c-3.5,1.2-6.7-1.6-7.2-4.9c0,0-1,0.1-1.2-1.3c-0.2-1.4,0.3-3,1.8-1.7 c0,0,1.3,0.2,2.6-1.7C87.6,125.1,91.3,126.8,95.1,125.3z"></path> </g> <linearGradient id="SVGID_53_" gradientUnits="userSpaceOnUse" x1="239.0214" y1="135.7185" x2="241.8248" y2="130.2653" gradientTransform="matrix(1 0 0 1 -115.5576 0)"> <stop offset="1.758850e-02" style="stop-color:#F4BD6C"></stop> <stop offset="1" style="stop-color:#FFD49C"></stop> </linearGradient> <path class="st59" d="M122.6,133.7c0,0,2.2-4.5,3.7-3.4c1.5,1.1-0.9,5.2-0.9,5.2L122.6,133.7z"></path> <linearGradient id="SVGID_54_" gradientUnits="userSpaceOnUse" x1="482.8662" y1="1436.634" x2="485.6697" y2="1431.1808" gradientTransform="matrix(0.4777 0.8785 -0.8785 0.4777 1122.0771 -950.2304)"> <stop offset="1.758850e-02" style="stop-color:#F4BD6C"></stop> <stop offset="1" style="stop-color:#FFD49C"></stop> </linearGradient> <path class="st60" d="M92,158.5c0,0,5-0.2,4.8,1.7c-0.2,1.9-5,1.7-5,1.7L92,158.5z"></path> <path class="st61" d="M76.5,240.2c0,0.2-4,3.8-3.5,5.9c0.5,2.1,6.2,1.6,6.9,1c1.3-1.1,1.7-3.6,1.4-6.8L76.5,240.2z"></path> <path class="st61" d="M111.3,245.8c0.8,0,1.2-1.1,0.5-1.6c0,0,0,0,0,0c-1.1-0.8-5.8-2.9-7-3.2l-5.3,0.1c-0.1,0.9,0,2.5,0.1,3.7 c0.1,0.6,0.6,1,1.1,1H111.3z"></path> <linearGradient id="SVGID_55_" gradientUnits="userSpaceOnUse" x1="169.8069" y1="178.0189" x2="210.6906" y2="136.2303" gradientTransform="matrix(1 0 0 1 -115.5576 0)"> <stop offset="0" style="stop-color:#00A6EF"></stop> <stop offset="1" style="stop-color:#00A6D2"></stop> </linearGradient> <path class="st62" d="M92,158.3c0,0-16.5-2.6-17.4-3.8c-0.9-1.2,1-14.6,1-14.6l-6.4-0.2c-3.7,4.2-3.7,20.6-2.1,21 c1.7,0.4,7,1.4,7,1.4s0.1,0,0.4,0c2.1,0.2,13.5,0.2,17.4,0.2L92,158.3z"></path> <path class="st63" d="M92.1,162.3c0,0-15.7,2.2-15.9,2.7c-0.2,0.4-0.3,9.2-0.3,13.4c-1.3-0.2-2-0.3-2-0.3l0.4-16.1 c0,0,0.1,0,0.4,0C76.7,162.3,88.1,162.3,92.1,162.3z"></path> <path class="st64" d="M77.4,155.5l-0.6-10.2c0,0-1.7,5.6-1.9,9.9L77.4,155.5z"></path> <path class="st65" d="M88.8,190.3l9.4,16.9l1.1,33.9l0.7,0c1-9.2,3.3-32.8,1.9-35.4C100.2,202.5,88.8,190.3,88.8,190.3z"></path> <path class="st65" d="M74.1,178c-0.5,7.3-1.7,28.3-0.1,44.8c1.2,12.6,1.9,16.4,2.1,17.4H78c-3.7-10.9-2.2-61.8-2.2-61.8L74.1,178 z"></path> </g> </g> </g> <g> </g> <g> </g> <g> </g> <g> </g> <g> </g> <g> </g> <g> </g> <g> </g> <g> </g> <g> </g> <g> </g> <g> </g> <g> </g> <g> </g> <g> </g> </svg> 